<svg width="20" height="20" viewBox="0 0 20 20" fill="none" xmlns="http://www.w3.org/2000/svg">
<path fill-rule="evenodd" clip-rule="evenodd" d="M5.96091 1.07745C6.11719 0.921171 6.32915 0.833374 6.55016 0.833374H13.4502C13.6712 0.833374 13.8831 0.921171 14.0394 1.07745L18.9228 5.96078C19.079 6.11707 19.1668 6.32903 19.1668 6.55004V13.45C19.1668 13.6711 19.079 13.883 18.9228 14.0393L14.0394 18.9226C13.8831 19.0789 13.6712 19.1667 13.4502 19.1667H6.55016C6.32915 19.1667 6.11719 19.0789 5.96091 18.9226L1.07757 14.0393C0.921293 13.883 0.833496 13.6711 0.833496 13.45V6.55004C0.833496 6.32903 0.921293 6.11707 1.07757 5.96078L5.96091 1.07745ZM6.89534 2.50004L2.50016 6.89522V13.1049L6.89534 17.5H13.105L17.5002 13.1049V6.89522L13.105 2.50004H6.89534ZM9.16684 13.3334C9.16684 12.8731 9.53993 12.5 10.0002 12.5H10.0085C10.4687 12.5 10.8418 12.8731 10.8418 13.3334C10.8418 13.7936 10.4687 14.1667 10.0085 14.1667H10.0002C9.53993 14.1667 9.16684 13.7936 9.16684 13.3334ZM10.8335 6.66671C10.8335 6.20647 10.4604 5.83337 10.0002 5.83337C9.53993 5.83337 9.16684 6.20647 9.16684 6.66671V10C9.16684 10.4603 9.53993 10.8334 10.0002 10.8334C10.4604 10.8334 10.8335 10.4603 10.8335 10V6.66671Z" fill="#EB5757"/>
</svg>
