<svg width="548" height="223" viewBox="0 0 548 223" fill="none" xmlns="http://www.w3.org/2000/svg">
<path d="M58.3287 212.776C56.9869 214.253 55.4418 214.992 53.6934 214.992C52.7176 214.992 51.8163 214.782 50.9895 214.361C50.1763 213.941 49.4648 213.386 48.8549 212.694C48.2585 212.003 47.7909 211.224 47.4521 210.356C47.1133 209.475 46.9439 208.574 46.9439 207.653C46.9439 206.69 47.1065 205.769 47.4318 204.888C47.7706 204.007 48.2382 203.234 48.8345 202.57C49.4309 201.892 50.1357 201.357 50.9489 200.964C51.7621 200.557 52.6498 200.354 53.6121 200.354C54.3169 200.354 54.9607 200.435 55.5434 200.598C56.1262 200.747 56.6413 200.964 57.0885 201.249C57.5493 201.52 57.9424 201.852 58.2677 202.245C58.6065 202.624 58.8911 203.044 59.1215 203.505L58.0237 204.237C57.5493 203.343 56.9327 202.685 56.1737 202.265C55.4147 201.845 54.5541 201.635 53.5918 201.635C52.7921 201.635 52.067 201.804 51.4165 202.143C50.7794 202.482 50.2305 202.936 49.7697 203.505C49.3225 204.061 48.9769 204.705 48.7329 205.437C48.4889 206.155 48.367 206.9 48.367 207.673C48.367 208.486 48.5025 209.259 48.7736 209.99C49.0582 210.722 49.4444 211.366 49.9324 211.922C50.4203 212.464 50.9895 212.898 51.6401 213.223C52.3042 213.548 53.0225 213.711 53.7951 213.711C54.6218 213.711 55.4079 213.521 56.1533 213.142C56.9123 212.749 57.6374 212.132 58.3287 211.292V208.893H55.1165V207.795H59.5281V214.89H58.3287V212.776ZM108.422 213.63V214.89H98.7244V200.456H108.239V201.716H100.147V206.921H107.202V208.12H100.147V213.63H108.422ZM155.822 203.16C155.416 202.699 154.874 202.326 154.196 202.041C153.518 201.757 152.746 201.615 151.878 201.615C150.604 201.615 149.676 201.858 149.093 202.346C148.51 202.821 148.219 203.471 148.219 204.298C148.219 204.732 148.293 205.091 148.442 205.376C148.605 205.647 148.849 205.884 149.174 206.087C149.5 206.29 149.913 206.467 150.414 206.616C150.93 206.765 151.533 206.914 152.224 207.063C152.996 207.226 153.688 207.409 154.298 207.612C154.921 207.815 155.45 208.073 155.883 208.384C156.317 208.683 156.649 209.049 156.879 209.482C157.11 209.916 157.225 210.458 157.225 211.109C157.225 211.773 157.096 212.349 156.839 212.837C156.581 213.325 156.222 213.731 155.761 214.056C155.3 214.382 154.752 214.626 154.115 214.788C153.478 214.937 152.78 215.012 152.021 215.012C149.784 215.012 147.853 214.314 146.227 212.918L146.938 211.759C147.196 212.03 147.501 212.288 147.853 212.532C148.219 212.776 148.619 212.993 149.052 213.182C149.5 213.358 149.974 213.501 150.475 213.609C150.977 213.704 151.506 213.752 152.061 213.752C153.213 213.752 154.108 213.548 154.745 213.142C155.395 212.721 155.721 212.091 155.721 211.251C155.721 210.804 155.626 210.431 155.436 210.133C155.26 209.821 154.989 209.557 154.623 209.34C154.257 209.11 153.803 208.913 153.261 208.75C152.719 208.588 152.088 208.425 151.37 208.262C150.611 208.086 149.947 207.903 149.378 207.714C148.808 207.524 148.327 207.287 147.934 207.002C147.541 206.717 147.243 206.379 147.04 205.985C146.85 205.579 146.755 205.084 146.755 204.501C146.755 203.837 146.877 203.248 147.121 202.733C147.379 202.204 147.738 201.77 148.199 201.432C148.659 201.079 149.201 200.815 149.825 200.639C150.448 200.449 151.14 200.354 151.899 200.354C152.861 200.354 153.715 200.503 154.46 200.801C155.219 201.086 155.904 201.493 156.513 202.021L155.822 203.16ZM205.677 201.716H200.534V214.89H199.111V201.716H193.967V200.456H205.677V201.716ZM243.536 214.89V200.456H244.959V214.89H243.536ZM290.808 198.484L289.893 198.138L291.092 196.247H292.556L290.808 198.484ZM290.665 214.992C289.663 214.992 288.741 214.788 287.901 214.382C287.074 213.962 286.362 213.413 285.766 212.735C285.17 212.044 284.709 211.258 284.383 210.377C284.058 209.496 283.896 208.594 283.896 207.673C283.896 206.711 284.065 205.789 284.404 204.908C284.756 204.027 285.237 203.248 285.847 202.57C286.457 201.892 287.175 201.357 288.002 200.964C288.829 200.557 289.723 200.354 290.686 200.354C291.689 200.354 292.604 200.571 293.43 201.005C294.271 201.425 294.982 201.98 295.565 202.672C296.161 203.363 296.622 204.149 296.947 205.03C297.273 205.897 297.435 206.785 297.435 207.693C297.435 208.655 297.259 209.577 296.907 210.458C296.568 211.339 296.094 212.118 295.484 212.796C294.887 213.46 294.176 213.995 293.349 214.402C292.522 214.795 291.628 214.992 290.665 214.992ZM285.319 207.673C285.319 208.459 285.447 209.218 285.705 209.95C285.962 210.668 286.328 211.312 286.803 211.881C287.277 212.437 287.84 212.884 288.49 213.223C289.141 213.548 289.866 213.711 290.665 213.711C291.479 213.711 292.217 213.535 292.881 213.182C293.546 212.83 294.108 212.369 294.569 211.8C295.03 211.231 295.382 210.587 295.626 209.868C295.883 209.15 296.012 208.418 296.012 207.673C296.012 206.887 295.877 206.135 295.606 205.416C295.348 204.684 294.982 204.041 294.508 203.485C294.033 202.929 293.471 202.489 292.82 202.163C292.17 201.825 291.452 201.655 290.665 201.655C289.852 201.655 289.114 201.831 288.449 202.184C287.785 202.523 287.223 202.977 286.762 203.546C286.301 204.115 285.942 204.759 285.685 205.477C285.441 206.196 285.319 206.927 285.319 207.673ZM337.814 203.099V214.89H336.391V200.456H337.489L347.044 212.471V200.476H348.467V214.89H347.227L337.814 203.099Z" fill="#1D1D1B"/>
<path d="M547.28 160.72C546.66 159.51 545.28 158.06 542.28 158.06C533.98 158.06 529.64 162.58 527.57 165.9L527.71 165.09L527 166.9C527.83 162.47 528.79 158.68 528.8 158.64L528.95 158.06H522.29L522.19 158.4C521.318 161.74 520.65 165.129 520.19 168.55C500.02 181.72 478.19 181.9 471.84 181.63C468.98 180.7 471.34 167.06 473.51 158.63L473.66 158.05H467L466.91 158.39C465.604 163.32 464.826 168.375 464.59 173.47C462.22 175.61 456.68 180.3 452.88 180.98C452.742 181.017 452.596 181.015 452.46 180.972C452.324 180.93 452.202 180.849 452.11 180.74C449.91 178.37 452.97 163.97 454.34 158.63L454.49 158.05H447.83L447.73 158.39C447.55 159.06 443.29 174.96 446.78 180.72C447.065 181.222 447.451 181.659 447.914 182.004C448.377 182.348 448.907 182.592 449.47 182.72C455 183.93 461.47 178.29 464.61 175.03C464.8 179.59 466.16 182.18 468.68 182.72C469.539 182.845 470.403 182.925 471.27 182.96C471.93 182.96 473.01 183.04 474.45 183.04C482.13 183.04 501.75 181.78 519.95 170.32L511.19 222.13H518.47L524.61 182.13L525.27 182.24C532.64 183.12 539.77 179.8 544.44 173.24C547.67 168.73 548.81 163.7 547.28 160.72ZM539.08 161.57C541.08 162.92 541.02 167.88 538.83 172.85C535.37 180.66 527.16 180.14 524.96 179.85L526.12 172.34C527.466 169.947 529.091 167.721 530.96 165.71C534.44 162 537.39 160.46 539.08 161.57Z" fill="#00A19B"/>
<path d="M390.83 173.33L388 175.7C384.23 178.77 381.08 180.6 378.88 180.99C378.741 181.027 378.594 181.024 378.456 180.982C378.318 180.939 378.194 180.859 378.1 180.75C375.9 178.38 378.97 163.98 380.34 158.64L380.48 158.06H373.82L373.73 158.4C372.726 162.208 372.004 166.085 371.57 170C351.88 182 331.13 182.08 325.16 181.83C323.37 181.45 319.75 180.62 320.36 170.1L320.44 168.01C320.44 168.01 320.55 166.25 320.79 163.48C324.97 157.26 329.01 147.4 331.64 137.02H348.15V135.17H332.09C333.09 130.72 335.54 118.85 332.5 116.4C332.142 116.132 331.711 115.979 331.264 115.963C330.817 115.947 330.376 116.068 330 116.31C325.64 118.42 322 124.75 319.22 135.13L296.46 135.07V137L318.74 137.06C316.15 147.52 314.81 159.81 314.15 168.43C294.15 181.57 272.28 181.89 265.93 181.66C263.07 180.72 265.43 167.09 267.61 158.66L267.76 158.08H261.09L261 158.42C259.699 163.351 258.922 168.406 258.68 173.5C256.31 175.64 250.77 180.33 246.98 181.01C246.841 181.047 246.693 181.044 246.556 181.002C246.418 180.959 246.294 180.879 246.2 180.77C244 178.4 247.06 164 248.43 158.66L248.58 158.08H241.92L241.82 158.42C240.856 162.163 240.155 165.969 239.72 169.81C222.08 180.86 203.01 182.17 195.57 182.21C190.02 181.45 189.06 178.42 189.02 178.3V178.21C187.2 174.71 190.16 161.21 190.2 161.1L190.32 160.53H184.51L184 164C183.701 163.224 183.234 162.524 182.632 161.95C182.031 161.376 181.309 160.942 180.52 160.68C178.19 160.03 175.28 161.27 171.9 164.35C170.587 165.534 169.428 166.877 168.45 168.35L168.1 168.59C150 180.71 130 182.14 122.18 182.19C119.18 181.83 117.13 180.88 116.18 179.37C115.775 178.661 115.53 177.872 115.461 177.059C115.392 176.246 115.501 175.427 115.78 174.66C117.59 173.98 129.23 169.2 126.49 159.88C126.388 159.375 126.12 158.918 125.728 158.583C125.337 158.248 124.845 158.053 124.33 158.03H124.11C120.29 158.03 112.86 164.97 109.87 171.37C93.87 180.3 81.94 181.37 74.75 180.62C71.0317 180.308 67.407 179.29 64.07 177.62C68.83 172.93 70.58 165.8 69.15 162.13C68.9062 161.36 68.42 160.69 67.7639 160.22C67.1078 159.749 66.3171 159.504 65.51 159.52C59.77 159.52 56.36 163.44 54.79 165.9C54.79 165.23 54.9 164.43 54.98 163.51C64.47 149.4 70.87 121.2 66.98 116.72C66.6404 116.325 66.168 116.069 65.6521 115.999C65.1362 115.929 64.6125 116.05 64.18 116.34C53.53 121.5 49.65 151.55 48.27 169.15C29 185.89 1.16 176.75 0.88 176.66L0.45 176.51L0 177.83L0.44 177.98C6.0829 179.667 11.9311 180.568 17.82 180.66H18.82C26.82 180.66 38.39 178.97 48.14 171.08C47.72 176.98 47.61 180.96 47.61 181V181.42L52 182C53.9541 182.217 55.9318 182.033 57.8127 181.461C59.6935 180.888 61.4381 179.939 62.94 178.67C66.5381 180.553 70.4811 181.686 74.53 182C75.8593 182.13 77.1943 182.194 78.53 182.19C87.91 182.19 98.17 179.19 109.06 173.39C108.736 174.356 108.58 175.371 108.6 176.39C108.612 177.384 108.839 178.363 109.265 179.261C109.691 180.158 110.307 180.953 111.07 181.59C113.88 183.9 118.99 184.51 126.21 183.42C134.89 182.95 151.53 180.68 167.13 170.89C165.57 174.57 165.76 178.22 167.72 180.51C169.41 182.51 172.11 183 175.11 181.9C178.7 180.58 181.11 178.58 182.51 175.68C182.534 176.737 182.79 177.776 183.26 178.723C183.73 179.67 184.403 180.502 185.23 181.16C188.78 184.04 194.76 183.99 197.76 183.51C206.54 183.22 223.5 181.26 239.6 171.51C239.17 178.29 240.5 182.06 243.6 182.74C249.14 183.95 255.6 178.31 258.74 175.05C258.94 179.61 260.29 182.2 262.81 182.74L263.74 182.86H264.2H264.6H265.3C265.91 182.86 266.92 182.92 268.22 182.92C275.96 182.92 295.77 181.65 314.06 169.99C314.06 170.16 314.06 170.32 314.06 170.49C313.89 175.28 315.69 179.11 319.13 181.28C320.389 182.207 321.867 182.793 323.42 182.98L323.87 183.03H324C324.262 183.061 324.526 183.078 324.79 183.08C325.42 183.08 326.45 183.15 327.79 183.15C335.06 183.15 353.72 182.01 371.42 171.57C371.03 178.22 372.37 181.92 375.42 182.57C379.06 183.36 383.06 181.2 386.21 178.78L386.12 178.95L390.55 175.06L390.19 177.74C390.04 179.3 389.85 180.89 389.64 182.48C377.04 188.78 364.64 209.41 366.04 218.29C366.072 218.838 366.212 219.374 366.451 219.868C366.691 220.362 367.025 220.804 367.436 221.168C367.847 221.532 368.325 221.811 368.844 221.99C369.363 222.169 369.912 222.244 370.46 222.21H370.8C371.051 222.207 371.302 222.184 371.55 222.14L372.11 222.06C375.657 221.159 378.867 219.248 381.35 216.56C394.59 203.62 397.46 173.26 397.57 171.97V172C398.35 165.68 399.46 158.62 399.47 158.55L399.55 158.02H392.9L390.83 173.33ZM373.83 219.54L373.61 219.7L373.13 220.04L373.01 220.12C372.54 220.477 372.012 220.751 371.45 220.93C369.06 221.28 367.79 220.43 367.45 218.26C366.78 213.96 370.1 205.56 375.52 197.83C379.87 191.63 384.78 186.83 389.44 184.32C387.61 196.52 383.43 212.18 373.81 219.54H373.83ZM329.9 135.2H324.65C326.48 126.4 328.56 120.94 330.85 118.99C331.19 118.69 331.49 118.56 331.62 118.64C332.59 119.22 332.32 125.23 329.9 135.2ZM324.27 137H329.44C327.472 145.064 324.667 152.899 321.07 160.38C321.63 154.53 322.67 145.29 324.27 137ZM172.27 177C172.57 171.72 176.62 162.77 179.27 162.77C179.618 162.757 179.965 162.822 180.286 162.961C180.606 163.099 180.891 163.307 181.12 163.57C182.75 165.39 182.29 169.62 182.28 169.66C182.15 171.72 179.87 176.51 176.99 178.91C176.525 179.365 175.973 179.721 175.366 179.955C174.759 180.189 174.11 180.296 173.46 180.27C172.3 180.15 172.23 178.17 172.3 177H172.27ZM125.11 162.67C124.35 168.82 118.11 171.15 116.11 171.73C116.53 168.83 120.92 163.84 123.64 162.26C123.998 162.017 124.41 161.862 124.84 161.81C124.895 161.79 124.955 161.79 125.01 161.81C125.13 161.9 125.21 162.16 125.14 162.67H125.11ZM63.82 136.15C61.8305 144.528 58.9474 152.668 55.22 160.43C56.41 148 59.4 123.76 65 119C65.1843 118.816 65.4164 118.688 65.67 118.63C65.7118 118.614 65.7582 118.614 65.8 118.63C66.79 119.45 66.42 125.73 63.82 136.15ZM60.21 175.69C58.64 178.02 56.11 180.55 52.85 179.64C53.09 177.44 54.66 165.91 61.51 162.49C62.63 161.93 63.03 162.38 63.16 162.49C64.59 164.16 63.39 171 60.21 175.69Z" fill="#00A19B"/>
<path d="M268.39 91.26V91.2C276.95 90.91 289.25 89.27 305.55 84.2L305.85 84.1C310.48 82.7 315.63 80.94 321.31 78.74C321.31 78.74 317.1 76.57 316.09 74.74C316.09 74.74 334.17 78.27 365.73 53.82C383.54 39.91 389.49 20 387.38 0C387.38 0 359.38 8 355.46 19.41C351.54 30.82 344.07 34.41 344.07 34.41C350.2 30.49 350.36 19.96 350.36 19.96C338.77 29.56 312.83 33.57 300.16 41.48C295.177 44.6542 290.015 47.539 284.7 50.12C287.91 47.44 288.19 41.85 288.19 41.85C258.49 41.29 240.6 54 234.3 60.25C228 66.5 216.3 73.98 207.11 74.63C197.92 75.28 174.77 65 174.77 65C174.06 64.6449 173.243 64.5699 172.48 64.79C172.074 64.9091 171.697 65.1074 171.368 65.3734C171.04 65.6394 170.767 65.9679 170.566 66.3398C170.365 66.7117 170.24 67.1197 170.198 67.5403C170.156 67.9608 170.197 68.3856 170.32 68.79C170.541 69.5405 171.032 70.1822 171.7 70.59C171.7 70.59 177.65 77.59 240.03 79C302.41 80.41 347.73 45.52 347.73 45.52C347.73 45.52 303.83 82.18 241.44 83.33C236.593 83.4233 232.063 83.4567 227.85 83.43C236.208 86.2439 244.761 88.4398 253.44 90C253.51 90 257.21 91.17 264.76 91.24C266 91.29 267.22 91.3 268.39 91.26Z" fill="#00A19B"/>
</svg>
