<svg width="20" height="20" viewBox="0 0 20 20" fill="none" xmlns="http://www.w3.org/2000/svg">
<path fill-rule="evenodd" clip-rule="evenodd" d="M3.33335 9.16667C3.33335 5.94501 5.94503 3.33333 9.16669 3.33333C12.3883 3.33333 15 5.94501 15 9.16667C15 10.7383 14.3785 12.1647 13.3679 13.2136C13.3393 13.2356 13.3119 13.2596 13.2858 13.2857C13.2596 13.3119 13.2356 13.3393 13.2137 13.3678C12.1647 14.3785 10.7383 15 9.16669 15C5.94503 15 3.33335 12.3883 3.33335 9.16667ZM13.8481 15.0266C12.565 16.0529 10.9375 16.6667 9.16669 16.6667C5.02455 16.6667 1.66669 13.3088 1.66669 9.16667C1.66669 5.02453 5.02455 1.66667 9.16669 1.66667C13.3088 1.66667 16.6667 5.02453 16.6667 9.16667C16.6667 10.9375 16.053 12.565 15.0266 13.8481L18.0893 16.9107C18.4147 17.2362 18.4147 17.7638 18.0893 18.0893C17.7638 18.4147 17.2362 18.4147 16.9108 18.0893L13.8481 15.0266Z" fill="#190134"/>
</svg>
