<svg width="20" height="20" viewBox="0 0 20 20" fill="none" xmlns="http://www.w3.org/2000/svg">
<path fill-rule="evenodd" clip-rule="evenodd" d="M10.0002 2.50004C5.85803 2.50004 2.50016 5.8579 2.50016 10C2.50016 14.1422 5.85803 17.5 10.0002 17.5C14.1423 17.5 17.5002 14.1422 17.5002 10C17.5002 5.8579 14.1423 2.50004 10.0002 2.50004ZM0.833496 10C0.833496 4.93743 4.93755 0.833374 10.0002 0.833374C15.0628 0.833374 19.1668 4.93743 19.1668 10C19.1668 15.0626 15.0628 19.1667 10.0002 19.1667C4.93755 19.1667 0.833496 15.0626 0.833496 10Z" fill="white"/>
<path fill-rule="evenodd" clip-rule="evenodd" d="M9.99986 12.5C8.32935 12.5 7.5548 13.4202 7.41188 13.7061C7.20606 14.1177 6.70549 14.2846 6.29385 14.0787C5.8822 13.8729 5.71534 13.3723 5.92117 12.9607C6.3338 12.1354 7.67037 10.8334 9.99986 10.8334C12.3293 10.8334 13.6659 12.1354 14.0785 12.9607C14.2844 13.3723 14.1175 13.8729 13.7059 14.0787C13.2942 14.2846 12.7937 14.1177 12.5878 13.7061C12.4449 13.4202 11.6704 12.5 9.99986 12.5Z" fill="white"/>
<path fill-rule="evenodd" clip-rule="evenodd" d="M6.6665 7.49996C6.6665 7.03972 7.0396 6.66663 7.49984 6.66663H7.50817C7.96841 6.66663 8.3415 7.03972 8.3415 7.49996C8.3415 7.9602 7.96841 8.33329 7.50817 8.33329H7.49984C7.0396 8.33329 6.6665 7.9602 6.6665 7.49996Z" fill="white"/>
<path fill-rule="evenodd" clip-rule="evenodd" d="M11.6665 7.49996C11.6665 7.03972 12.0396 6.66663 12.4998 6.66663H12.5082C12.9684 6.66663 13.3415 7.03972 13.3415 7.49996C13.3415 7.9602 12.9684 8.33329 12.5082 8.33329H12.4998C12.0396 8.33329 11.6665 7.9602 11.6665 7.49996Z" fill="white"/>
</svg>
