<svg width="20" height="20" viewBox="0 0 20 20" fill="none" xmlns="http://www.w3.org/2000/svg">
<path fill-rule="evenodd" clip-rule="evenodd" d="M14.1665 1.66671C14.1665 1.20647 13.7934 0.833374 13.3332 0.833374C12.8729 0.833374 12.4998 1.20647 12.4998 1.66671V2.50004H7.49984V1.66671C7.49984 1.20647 7.12674 0.833374 6.6665 0.833374C6.20627 0.833374 5.83317 1.20647 5.83317 1.66671V2.50004H4.1665C2.78579 2.50004 1.6665 3.61933 1.6665 5.00004V16.6667C1.6665 18.0474 2.78579 19.1667 4.1665 19.1667H15.8332C17.2139 19.1667 18.3332 18.0474 18.3332 16.6667V5.00004C18.3332 3.61933 17.2139 2.50004 15.8332 2.50004H14.1665V1.66671ZM5.83317 5.00004V4.16671H4.1665C3.70627 4.16671 3.33317 4.5398 3.33317 5.00004V7.50004H16.6665V5.00004C16.6665 4.5398 16.2934 4.16671 15.8332 4.16671H14.1665V5.00004C14.1665 5.46028 13.7934 5.83337 13.3332 5.83337C12.8729 5.83337 12.4998 5.46028 12.4998 5.00004V4.16671H7.49984V5.00004C7.49984 5.46028 7.12674 5.83337 6.6665 5.83337C6.20627 5.83337 5.83317 5.46028 5.83317 5.00004ZM16.6665 9.16671H3.33317V16.6667C3.33317 17.1269 3.70627 17.5 4.1665 17.5H15.8332C16.2934 17.5 16.6665 17.1269 16.6665 16.6667V9.16671Z" fill="#190134"/>
</svg>
